<svg width="24" height="24" viewBox="0 0 24 24" fill="none" xmlns="http://www.w3.org/2000/svg">
<path d="M14.61 7.83025L10.95 3.48025C10.8034 3.32185 10.6243 3.19696 10.4249 3.11412C10.2256 3.03128 10.0107 2.99244 9.795 3.00025H3C2.60218 3.00025 2.22064 3.15828 1.93934 3.43959C1.65804 3.72089 1.5 4.10243 1.5 4.50025V19.5003C1.5 19.8981 1.65804 20.2796 1.93934 20.5609C2.22064 20.8422 2.60218 21.0003 3 21.0003H21C21.3978 21.0003 21.7794 20.8422 22.0607 20.5609C22.342 20.2796 22.5 19.8981 22.5 19.5003V9.33025C22.5 8.93242 22.342 8.55089 22.0607 8.26959C21.7794 7.98828 21.3978 7.83025 21 7.83025H14.61ZM3.75 5.20525H9.45L11.67 7.83025H3.75V5.20525ZM20.25 18.7053H3.75V10.0802H20.25V18.7053Z" fill="black"/>
</svg>
