<svg width="7" height="6" viewBox="0 0 7 6" fill="none" xmlns="http://www.w3.org/2000/svg">
<path d="M0.579996 1.00002H6.42C6.52269 0.992979 6.62522 1.01599 6.71505 1.06626C6.80488 1.11652 6.87813 1.19185 6.92586 1.28306C6.97358 1.37427 6.99371 1.4774 6.98379 1.57985C6.97387 1.68231 6.93433 1.77966 6.87 1.86002L3.95 4.80002C3.89369 4.86387 3.82444 4.915 3.74686 4.95002C3.66927 4.98504 3.58512 5.00316 3.5 5.00316C3.41487 5.00316 3.33072 4.98504 3.25313 4.95002C3.17555 4.915 3.1063 4.86387 3.05 4.80002L0.129996 1.86002C0.0656613 1.77966 0.0261197 1.68231 0.0161999 1.57985C0.00628016 1.4774 0.0264116 1.37427 0.0741356 1.28306C0.12186 1.19185 0.195111 1.11652 0.284943 1.06626C0.374774 1.01599 0.477299 0.992979 0.579996 1.00002Z" fill="#414348"/>
</svg>
